<svg xmlns="http://www.w3.org/2000/svg" xmlns:xlink="http://www.w3.org/1999/xlink" width="500" zoomAndPan="magnify" viewBox="0 0 375 374.999991" height="500" preserveAspectRatio="xMidYMid meet" version="1.0"><defs><g/><clipPath id="5e99f8b588"><path d="M 125.460938 118 L 194 118 L 194 196 L 125.460938 196 Z M 125.460938 118 " clip-rule="nonzero"/></clipPath><clipPath id="83325410e7"><path d="M 125.460938 84.097656 L 249.210938 84.097656 L 249.210938 230.347656 L 125.460938 230.347656 Z M 125.460938 84.097656 " clip-rule="nonzero"/></clipPath><clipPath id="b1781fa5fe"><path d="M 139.601562 140.761719 L 171.1875 140.761719 L 171.1875 173.019531 L 139.601562 173.019531 Z M 139.601562 140.761719 " clip-rule="nonzero"/></clipPath><clipPath id="3360108701"><path d="M 169.875 158.984375 L 143.589844 172.699219 C 142.746094 173.140625 141.730469 173.109375 140.914062 172.613281 C 140.097656 172.121094 139.601562 171.234375 139.601562 170.28125 L 139.601562 143.519531 C 139.601562 142.566406 140.097656 141.683594 140.914062 141.1875 C 141.730469 140.695312 142.746094 140.660156 143.589844 141.101562 L 169.875 154.820312 C 170.652344 155.222656 171.140625 156.027344 171.140625 156.902344 C 171.140625 157.777344 170.652344 158.578125 169.875 158.984375 Z M 169.875 158.984375 " clip-rule="nonzero"/></clipPath><clipPath id="1d870fe184"><path d="M 0.601562 0.761719 L 32.1875 0.761719 L 32.1875 33.019531 L 0.601562 33.019531 Z M 0.601562 0.761719 " clip-rule="nonzero"/></clipPath><clipPath id="8684b55674"><path d="M 30.875 18.984375 L 4.589844 32.699219 C 3.746094 33.140625 2.730469 33.109375 1.914062 32.613281 C 1.097656 32.121094 0.601562 31.234375 0.601562 30.28125 L 0.601562 3.519531 C 0.601562 2.566406 1.097656 1.683594 1.914062 1.1875 C 2.730469 0.695312 3.746094 0.660156 4.589844 1.101562 L 30.875 14.820312 C 31.652344 15.222656 32.140625 16.027344 32.140625 16.902344 C 32.140625 17.777344 31.652344 18.578125 30.875 18.984375 Z M 30.875 18.984375 " clip-rule="nonzero"/></clipPath><clipPath id="657bd7347a"><rect x="0" width="33" y="0" height="34"/></clipPath><clipPath id="364530f4eb"><rect x="0" width="303" y="0" height="59"/></clipPath></defs><g clip-path="url(#5e99f8b588)"><path fill="#000000" d="M 130.6875 195.363281 L 161.230469 177.738281 L 191.769531 160.117188 C 192.890625 159.484375 193.449219 158.363281 193.523438 157.28125 C 193.5625 156.046875 193.003906 154.777344 191.769531 154.105469 L 161.230469 136.484375 L 130.6875 118.824219 C 128.375 117.480469 125.460938 119.160156 125.460938 121.8125 L 125.460938 192.339844 C 125.460938 195.027344 128.375 196.707031 130.6875 195.363281 Z M 130.6875 195.363281 " fill-opacity="1" fill-rule="nonzero"/></g><g clip-path="url(#83325410e7)"><path fill="#ffffff" d="M 245.160156 132.601562 C 242.246094 123.601562 237.65625 115.5 231.382812 108.21875 C 225.109375 100.941406 216.824219 95.152344 206.519531 90.785156 C 196.214844 86.417969 183.707031 84.25 169.070312 84.25 L 125.460938 84.25 L 125.460938 99.074219 C 125.460938 103.816406 128 108.183594 132.070312 110.535156 L 154.210938 123.339844 L 154.210938 111.804688 L 177.582031 111.804688 C 180.867188 111.804688 184.902344 112.441406 189.679688 113.671875 C 194.421875 114.941406 199.089844 117.21875 203.644531 120.503906 C 208.199219 123.828125 212.042969 128.457031 215.140625 134.46875 C 218.242188 140.480469 219.808594 148.246094 219.808594 157.765625 C 219.808594 165.046875 218.652344 171.46875 216.335938 177.066406 C 214.023438 182.667969 210.738281 187.335938 206.441406 191.03125 C 202.148438 194.726562 197.035156 197.527344 191.097656 199.46875 C 185.160156 201.375 178.554688 202.34375 171.273438 202.34375 L 154.210938 202.34375 L 154.210938 190.808594 L 132.109375 203.574219 C 128 205.964844 125.460938 210.332031 125.460938 215.074219 L 125.460938 230.121094 L 176.203125 230.121094 C 186.09375 230.121094 195.503906 228.515625 204.351562 225.269531 C 213.199219 222.019531 221.003906 217.351562 227.722656 211.191406 C 234.445312 205.03125 239.785156 197.640625 243.667969 189.015625 C 247.550781 180.351562 249.527344 170.609375 249.527344 159.78125 C 249.527344 150.632812 248.074219 141.597656 245.160156 132.601562 Z M 245.160156 132.601562 " fill-opacity="1" fill-rule="nonzero"/></g><g clip-path="url(#b1781fa5fe)"><g clip-path="url(#3360108701)"><g transform="matrix(1, 0, 0, 1, 139, 140)"><g clip-path="url(#657bd7347a)"><g clip-path="url(#1d870fe184)"><g clip-path="url(#8684b55674)"><path fill="#ffffff" d="M 34.867188 -0.980469 L 34.867188 34.757812 L 0.601562 34.757812 L 0.601562 -0.980469 Z M 34.867188 -0.980469 " fill-opacity="1" fill-rule="nonzero"/></g></g></g></g></g></g><g transform="matrix(1, 0, 0, 1, 36, 238)"><g clip-path="url(#364530f4eb)"><g fill="#ffffff" fill-opacity="1"><g transform="translate(1.019082, 42.4054)"><g><path d="M 3.328125 0 L 3.328125 -27.734375 L 14.296875 -27.734375 C 17.234375 -27.734375 19.796875 -27.148438 21.984375 -25.984375 C 24.179688 -24.828125 25.882812 -23.203125 27.09375 -21.109375 C 28.3125 -19.023438 28.921875 -16.613281 28.921875 -13.875 C 28.921875 -11.09375 28.3125 -8.664062 27.09375 -6.59375 C 25.882812 -4.519531 24.179688 -2.898438 21.984375 -1.734375 C 19.796875 -0.578125 17.234375 0 14.296875 0 Z M 9.625 -5.78125 L 14.1875 -5.78125 C 15.820312 -5.78125 17.257812 -6.117188 18.5 -6.796875 C 19.75 -7.472656 20.722656 -8.414062 21.421875 -9.625 C 22.117188 -10.84375 22.46875 -12.257812 22.46875 -13.875 C 22.46875 -15.507812 22.117188 -16.925781 21.421875 -18.125 C 20.722656 -19.332031 19.742188 -20.269531 18.484375 -20.9375 C 17.234375 -21.613281 15.773438 -21.953125 14.109375 -21.953125 L 9.625 -21.953125 Z M 9.625 -5.78125 "/></g></g></g><g fill="#ffffff" fill-opacity="1"><g transform="translate(30.614867, 42.4054)"><g><path d="M 12.84375 0.5625 C 10.625 0.5625 8.660156 0.0976562 6.953125 -0.828125 C 5.242188 -1.753906 3.914062 -3.039062 2.96875 -4.6875 C 2.019531 -6.34375 1.546875 -8.253906 1.546875 -10.421875 C 1.546875 -12.585938 2.023438 -14.488281 2.984375 -16.125 C 3.953125 -17.757812 5.285156 -19.039062 6.984375 -19.96875 C 8.691406 -20.894531 10.671875 -21.359375 12.921875 -21.359375 C 15.296875 -21.359375 17.347656 -20.828125 19.078125 -19.765625 C 20.804688 -18.710938 22.125 -17.234375 23.03125 -15.328125 C 23.945312 -13.429688 24.335938 -11.210938 24.203125 -8.671875 L 7.53125 -8.671875 C 7.820312 -7.242188 8.453125 -6.15625 9.421875 -5.40625 C 10.398438 -4.65625 11.578125 -4.28125 12.953125 -4.28125 C 13.960938 -4.28125 14.878906 -4.46875 15.703125 -4.84375 C 16.535156 -5.226562 17.207031 -5.765625 17.71875 -6.453125 L 23.8125 -6.453125 C 22.914062 -4.265625 21.503906 -2.546875 19.578125 -1.296875 C 17.648438 -0.0546875 15.40625 0.5625 12.84375 0.5625 Z M 7.5625 -12.484375 L 18.390625 -12.484375 C 18.046875 -13.753906 17.40625 -14.75 16.46875 -15.46875 C 15.53125 -16.195312 14.359375 -16.5625 12.953125 -16.5625 C 11.628906 -16.5625 10.484375 -16.195312 9.515625 -15.46875 C 8.554688 -14.75 7.90625 -13.753906 7.5625 -12.484375 Z M 7.5625 -12.484375 "/></g></g></g><g fill="#ffffff" fill-opacity="1"><g transform="translate(55.337424, 42.4054)"><g><path d="M 12.84375 0.5625 C 10.625 0.5625 8.660156 0.0976562 6.953125 -0.828125 C 5.242188 -1.753906 3.914062 -3.039062 2.96875 -4.6875 C 2.019531 -6.34375 1.546875 -8.253906 1.546875 -10.421875 C 1.546875 -12.585938 2.023438 -14.488281 2.984375 -16.125 C 3.953125 -17.757812 5.285156 -19.039062 6.984375 -19.96875 C 8.691406 -20.894531 10.671875 -21.359375 12.921875 -21.359375 C 15.296875 -21.359375 17.347656 -20.828125 19.078125 -19.765625 C 20.804688 -18.710938 22.125 -17.234375 23.03125 -15.328125 C 23.945312 -13.429688 24.335938 -11.210938 24.203125 -8.671875 L 7.53125 -8.671875 C 7.820312 -7.242188 8.453125 -6.15625 9.421875 -5.40625 C 10.398438 -4.65625 11.578125 -4.28125 12.953125 -4.28125 C 13.960938 -4.28125 14.878906 -4.46875 15.703125 -4.84375 C 16.535156 -5.226562 17.207031 -5.765625 17.71875 -6.453125 L 23.8125 -6.453125 C 22.914062 -4.265625 21.503906 -2.546875 19.578125 -1.296875 C 17.648438 -0.0546875 15.40625 0.5625 12.84375 0.5625 Z M 7.5625 -12.484375 L 18.390625 -12.484375 C 18.046875 -13.753906 17.40625 -14.75 16.46875 -15.46875 C 15.53125 -16.195312 14.359375 -16.5625 12.953125 -16.5625 C 11.628906 -16.5625 10.484375 -16.195312 9.515625 -15.46875 C 8.554688 -14.75 7.90625 -13.753906 7.5625 -12.484375 Z M 7.5625 -12.484375 "/></g></g></g><g fill="#ffffff" fill-opacity="1"><g transform="translate(80.05998, 42.4054)"><g><path d="M 3.015625 0 L 3.015625 -20.796875 L 7.484375 -20.796875 L 8.078125 -18.65625 C 8.847656 -19.5625 9.78125 -20.238281 10.875 -20.6875 C 11.96875 -21.132812 13.175781 -21.359375 14.5 -21.359375 C 17.5625 -21.359375 19.847656 -20.222656 21.359375 -17.953125 C 22.203125 -19.035156 23.265625 -19.875 24.546875 -20.46875 C 25.828125 -21.0625 27.257812 -21.359375 28.84375 -21.359375 C 31.507812 -21.359375 33.628906 -20.53125 35.203125 -18.875 C 36.773438 -17.226562 37.5625 -14.976562 37.5625 -12.125 L 37.5625 0 L 31.546875 0 L 31.546875 -11.40625 C 31.546875 -12.882812 31.179688 -14.050781 30.453125 -14.90625 C 29.722656 -15.769531 28.738281 -16.203125 27.5 -16.203125 C 26.207031 -16.203125 25.175781 -15.753906 24.40625 -14.859375 C 23.644531 -13.960938 23.265625 -12.757812 23.265625 -11.25 L 23.265625 0 L 17.3125 0 L 17.3125 -11.40625 C 17.3125 -12.882812 16.945312 -14.050781 16.21875 -14.90625 C 15.5 -15.769531 14.519531 -16.203125 13.28125 -16.203125 C 11.976562 -16.203125 10.941406 -15.753906 10.171875 -14.859375 C 9.410156 -13.960938 9.03125 -12.757812 9.03125 -11.25 L 9.03125 0 Z M 3.015625 0 "/></g></g></g><g fill="#ffffff" fill-opacity="1"><g transform="translate(119.243764, 42.4054)"><g/></g></g><g fill="#ffffff" fill-opacity="1"><g transform="translate(127.563709, 42.4054)"><g><path d="M 16.046875 0.5625 C 13.242188 0.5625 10.757812 -0.0507812 8.59375 -1.28125 C 6.425781 -2.507812 4.734375 -4.207031 3.515625 -6.375 C 2.304688 -8.539062 1.703125 -11.039062 1.703125 -13.875 C 1.703125 -16.695312 2.304688 -19.191406 3.515625 -21.359375 C 4.734375 -23.523438 6.421875 -25.222656 8.578125 -26.453125 C 10.734375 -27.679688 13.210938 -28.296875 16.015625 -28.296875 C 18.359375 -28.296875 20.507812 -27.84375 22.46875 -26.9375 C 24.425781 -26.039062 26.070312 -24.773438 27.40625 -23.140625 C 28.738281 -21.503906 29.664062 -19.578125 30.1875 -17.359375 L 23.703125 -17.359375 C 23.171875 -18.890625 22.226562 -20.097656 20.875 -20.984375 C 19.53125 -21.867188 17.972656 -22.3125 16.203125 -22.3125 C 14.648438 -22.3125 13.257812 -21.953125 12.03125 -21.234375 C 10.800781 -20.523438 9.84375 -19.535156 9.15625 -18.265625 C 8.46875 -16.992188 8.125 -15.53125 8.125 -13.875 C 8.125 -12.207031 8.46875 -10.738281 9.15625 -9.46875 C 9.84375 -8.195312 10.789062 -7.203125 12 -6.484375 C 13.21875 -5.773438 14.609375 -5.421875 16.171875 -5.421875 C 17.992188 -5.421875 19.585938 -5.890625 20.953125 -6.828125 C 22.328125 -7.765625 23.304688 -9.03125 23.890625 -10.625 L 30.390625 -10.625 C 29.941406 -8.375 29.039062 -6.410156 27.6875 -4.734375 C 26.34375 -3.054688 24.671875 -1.753906 22.671875 -0.828125 C 20.679688 0.0976562 18.472656 0.5625 16.046875 0.5625 Z M 16.046875 0.5625 "/></g></g></g><g fill="#ffffff" fill-opacity="1"><g transform="translate(158.546202, 42.4054)"><g><path d="M 3.015625 0 L 3.015625 -20.796875 L 7.484375 -20.796875 L 8.28125 -18.03125 C 8.96875 -19.007812 9.8125 -19.710938 10.8125 -20.140625 C 11.820312 -20.578125 13.09375 -20.796875 14.625 -20.796875 L 16.875 -20.796875 L 16.875 -15.328125 L 14.578125 -15.328125 C 12.859375 -15.328125 11.503906 -14.863281 10.515625 -13.9375 C 9.523438 -13.019531 9.03125 -11.4375 9.03125 -9.1875 L 9.03125 0 Z M 3.015625 0 "/></g></g></g><g fill="#ffffff" fill-opacity="1"><g transform="translate(175.780603, 42.4054)"><g><path d="M 12.84375 0.5625 C 10.625 0.5625 8.660156 0.0976562 6.953125 -0.828125 C 5.242188 -1.753906 3.914062 -3.039062 2.96875 -4.6875 C 2.019531 -6.34375 1.546875 -8.253906 1.546875 -10.421875 C 1.546875 -12.585938 2.023438 -14.488281 2.984375 -16.125 C 3.953125 -17.757812 5.285156 -19.039062 6.984375 -19.96875 C 8.691406 -20.894531 10.671875 -21.359375 12.921875 -21.359375 C 15.296875 -21.359375 17.347656 -20.828125 19.078125 -19.765625 C 20.804688 -18.710938 22.125 -17.234375 23.03125 -15.328125 C 23.945312 -13.429688 24.335938 -11.210938 24.203125 -8.671875 L 7.53125 -8.671875 C 7.820312 -7.242188 8.453125 -6.15625 9.421875 -5.40625 C 10.398438 -4.65625 11.578125 -4.28125 12.953125 -4.28125 C 13.960938 -4.28125 14.878906 -4.46875 15.703125 -4.84375 C 16.535156 -5.226562 17.207031 -5.765625 17.71875 -6.453125 L 23.8125 -6.453125 C 22.914062 -4.265625 21.503906 -2.546875 19.578125 -1.296875 C 17.648438 -0.0546875 15.40625 0.5625 12.84375 0.5625 Z M 7.5625 -12.484375 L 18.390625 -12.484375 C 18.046875 -13.753906 17.40625 -14.75 16.46875 -15.46875 C 15.53125 -16.195312 14.359375 -16.5625 12.953125 -16.5625 C 11.628906 -16.5625 10.484375 -16.195312 9.515625 -15.46875 C 8.554688 -14.75 7.90625 -13.753906 7.5625 -12.484375 Z M 7.5625 -12.484375 "/></g></g></g><g fill="#ffffff" fill-opacity="1"><g transform="translate(200.503159, 42.4054)"><g><path d="M 9.953125 0.390625 C 7.492188 0.390625 5.550781 -0.179688 4.125 -1.328125 C 2.695312 -2.472656 1.984375 -4.050781 1.984375 -6.0625 C 1.984375 -7.988281 2.625 -9.523438 3.90625 -10.671875 C 5.1875 -11.828125 6.910156 -12.40625 9.078125 -12.40625 L 16.609375 -12.40625 L 16.609375 -13.359375 C 16.609375 -14.390625 16.238281 -15.210938 15.5 -15.828125 C 14.757812 -16.453125 13.789062 -16.765625 12.59375 -16.765625 C 11.625 -16.765625 10.796875 -16.539062 10.109375 -16.09375 C 9.421875 -15.644531 8.984375 -15.046875 8.796875 -14.296875 L 3.015625 -14.296875 C 3.378906 -16.578125 4.398438 -18.320312 6.078125 -19.53125 C 7.753906 -20.75 9.914062 -21.359375 12.5625 -21.359375 C 15.675781 -21.359375 18.109375 -20.570312 19.859375 -19 C 21.617188 -17.425781 22.5 -15.265625 22.5 -12.515625 L 22.5 0 L 18.03125 0 L 17.359375 -2.421875 C 15.535156 -0.546875 13.066406 0.390625 9.953125 0.390625 Z M 7.921875 -6.296875 C 7.921875 -5.585938 8.226562 -5.015625 8.84375 -4.578125 C 9.46875 -4.140625 10.296875 -3.921875 11.328125 -3.921875 C 12.835938 -3.921875 14.085938 -4.351562 15.078125 -5.21875 C 16.066406 -6.09375 16.585938 -7.234375 16.640625 -8.640625 L 10.9375 -8.640625 C 10.039062 -8.640625 9.3125 -8.425781 8.75 -8 C 8.195312 -7.582031 7.921875 -7.015625 7.921875 -6.296875 Z M 7.921875 -6.296875 "/></g></g></g><g fill="#ffffff" fill-opacity="1"><g transform="translate(224.631417, 42.4054)"><g><path d="M 13.03125 0 C 10.394531 0 8.367188 -0.675781 6.953125 -2.03125 C 5.535156 -3.394531 4.828125 -5.347656 4.828125 -7.890625 L 4.828125 -15.890625 L 0.796875 -15.890625 L 0.796875 -20.796875 L 2.65625 -20.796875 C 3.789062 -20.796875 4.5625 -20.976562 4.96875 -21.34375 C 5.382812 -21.71875 5.671875 -22.4375 5.828125 -23.5 L 6.1875 -26.1875 L 10.859375 -26.1875 L 10.859375 -20.796875 L 16.5625 -20.796875 L 16.5625 -15.890625 L 10.859375 -15.890625 L 10.859375 -8.796875 C 10.859375 -6.421875 12.019531 -5.234375 14.34375 -5.234375 L 16.84375 -5.234375 L 16.84375 0 Z M 13.03125 0 "/></g></g></g><g fill="#ffffff" fill-opacity="1"><g transform="translate(242.143143, 42.4054)"><g><path d="M 3.015625 0 L 3.015625 -20.796875 L 9.03125 -20.796875 L 9.03125 0 Z M 2.140625 -27.546875 C 2.140625 -28.648438 2.5 -29.550781 3.21875 -30.25 C 3.945312 -30.945312 4.878906 -31.296875 6.015625 -31.296875 C 7.179688 -31.296875 8.117188 -30.945312 8.828125 -30.25 C 9.546875 -29.550781 9.90625 -28.648438 9.90625 -27.546875 C 9.90625 -26.429688 9.546875 -25.523438 8.828125 -24.828125 C 8.117188 -24.128906 7.179688 -23.78125 6.015625 -23.78125 C 4.878906 -23.78125 3.945312 -24.128906 3.21875 -24.828125 C 2.5 -25.523438 2.140625 -26.429688 2.140625 -27.546875 Z M 2.140625 -27.546875 "/></g></g></g><g fill="#ffffff" fill-opacity="1"><g transform="translate(253.196867, 42.4054)"><g><path d="M 9 0 L 0.359375 -20.796875 L 6.9375 -20.796875 L 9.265625 -14.265625 L 12.046875 -7.21875 L 14.78125 -14.265625 L 17.15625 -20.796875 L 23.703125 -20.796875 L 15.015625 0 Z M 9 0 "/></g></g></g><g fill="#ffffff" fill-opacity="1"><g transform="translate(276.255406, 42.4054)"><g><path d="M 12.84375 0.5625 C 10.625 0.5625 8.660156 0.0976562 6.953125 -0.828125 C 5.242188 -1.753906 3.914062 -3.039062 2.96875 -4.6875 C 2.019531 -6.34375 1.546875 -8.253906 1.546875 -10.421875 C 1.546875 -12.585938 2.023438 -14.488281 2.984375 -16.125 C 3.953125 -17.757812 5.285156 -19.039062 6.984375 -19.96875 C 8.691406 -20.894531 10.671875 -21.359375 12.921875 -21.359375 C 15.296875 -21.359375 17.347656 -20.828125 19.078125 -19.765625 C 20.804688 -18.710938 22.125 -17.234375 23.03125 -15.328125 C 23.945312 -13.429688 24.335938 -11.210938 24.203125 -8.671875 L 7.53125 -8.671875 C 7.820312 -7.242188 8.453125 -6.15625 9.421875 -5.40625 C 10.398438 -4.65625 11.578125 -4.28125 12.953125 -4.28125 C 13.960938 -4.28125 14.878906 -4.46875 15.703125 -4.84375 C 16.535156 -5.226562 17.207031 -5.765625 17.71875 -6.453125 L 23.8125 -6.453125 C 22.914062 -4.265625 21.503906 -2.546875 19.578125 -1.296875 C 17.648438 -0.0546875 15.40625 0.5625 12.84375 0.5625 Z M 7.5625 -12.484375 L 18.390625 -12.484375 C 18.046875 -13.753906 17.40625 -14.75 16.46875 -15.46875 C 15.53125 -16.195312 14.359375 -16.5625 12.953125 -16.5625 C 11.628906 -16.5625 10.484375 -16.195312 9.515625 -15.46875 C 8.554688 -14.75 7.90625 -13.753906 7.5625 -12.484375 Z M 7.5625 -12.484375 "/></g></g></g></g></g></svg>